<?xml version="1.0" encoding="UTF-8"?>
<svg xmlns="http://www.w3.org/2000/svg" xmlns:xlink="http://www.w3.org/1999/xlink" width="70px" height="70px" viewBox="0 0 70 70" version="1.1">
<g id="surface1">
<path style=" stroke:none;fill-rule:nonzero;fill:#fff;fill-opacity:1;" d="M 53.042969 65.617188 L 3.835938 65.617188 C 3.6875 65.617188 3.550781 65.5625 3.449219 65.457031 C 3.34375 65.355469 3.289062 65.21875 3.289062 65.070312 L 3.289062 4.929688 C 3.289062 4.78125 3.34375 4.644531 3.449219 4.542969 C 3.550781 4.4375 3.6875 4.382812 3.835938 4.382812 L 7.113281 4.382812 C 7.417969 4.382812 7.660156 4.625 7.660156 4.929688 C 7.660156 5.230469 7.417969 5.476562 7.113281 5.476562 L 4.382812 5.476562 L 4.382812 64.523438 L 52.496094 64.523438 L 52.496094 5.476562 L 49.761719 5.476562 C 49.460938 5.476562 49.214844 5.230469 49.214844 4.929688 C 49.214844 4.625 49.460938 4.382812 49.761719 4.382812 L 53.042969 4.382812 C 53.1875 4.382812 53.328125 4.4375 53.429688 4.542969 C 53.53125 4.644531 53.589844 4.78125 53.589844 4.929688 L 53.589844 65.070312 C 53.589844 65.21875 53.53125 65.355469 53.429688 65.457031 C 53.328125 65.5625 53.1875 65.617188 53.042969 65.617188 Z M 53.042969 65.617188 "/>
<path style=" stroke:none;fill-rule:nonzero;fill:#fff;fill-opacity:1;" d="M 45.386719 5.476562 L 42.109375 5.476562 C 41.804688 5.476562 41.5625 5.230469 41.5625 4.929688 C 41.5625 4.625 41.804688 4.382812 42.109375 4.382812 L 45.386719 4.382812 C 45.691406 4.382812 45.933594 4.625 45.933594 4.929688 C 45.933594 5.230469 45.691406 5.476562 45.386719 5.476562 Z M 37.734375 5.476562 L 34.453125 5.476562 C 34.152344 5.476562 33.90625 5.230469 33.90625 4.929688 C 33.90625 4.625 34.152344 4.382812 34.453125 4.382812 L 37.734375 4.382812 C 38.035156 4.382812 38.28125 4.625 38.28125 4.929688 C 38.28125 5.230469 38.035156 5.476562 37.734375 5.476562 Z M 30.078125 5.476562 L 26.796875 5.476562 C 26.496094 5.476562 26.25 5.230469 26.25 4.929688 C 26.25 4.625 26.496094 4.382812 26.796875 4.382812 L 30.078125 4.382812 C 30.382812 4.382812 30.625 4.625 30.625 4.929688 C 30.625 5.230469 30.382812 5.476562 30.078125 5.476562 Z M 22.425781 5.476562 L 19.144531 5.476562 C 18.839844 5.476562 18.597656 5.230469 18.597656 4.929688 C 18.597656 4.625 18.839844 4.382812 19.144531 4.382812 L 22.425781 4.382812 C 22.726562 4.382812 22.972656 4.625 22.972656 4.929688 C 22.972656 5.230469 22.726562 5.476562 22.425781 5.476562 Z M 14.769531 5.476562 L 11.488281 5.476562 C 11.1875 5.476562 10.941406 5.230469 10.941406 4.929688 C 10.941406 4.625 11.1875 4.382812 11.488281 4.382812 L 14.769531 4.382812 C 15.070312 4.382812 15.316406 4.625 15.316406 4.929688 C 15.316406 5.230469 15.070312 5.476562 14.769531 5.476562 Z M 52.496094 67.804688 L 3.835938 67.804688 C 3.6875 67.804688 3.550781 67.75 3.449219 67.644531 C 3.34375 67.542969 3.289062 67.402344 3.289062 67.257812 C 3.289062 67.113281 3.34375 66.976562 3.449219 66.871094 C 3.550781 66.769531 3.6875 66.710938 3.835938 66.710938 L 52.496094 66.710938 C 52.640625 66.710938 52.78125 66.769531 52.882812 66.871094 C 52.984375 66.976562 53.042969 67.113281 53.042969 67.257812 C 53.042969 67.402344 52.984375 67.542969 52.882812 67.644531 C 52.78125 67.75 52.640625 67.804688 52.496094 67.804688 Z M 52.496094 69.992188 L 3.835938 69.992188 C 3.6875 69.992188 3.550781 69.933594 3.449219 69.832031 C 3.34375 69.730469 3.289062 69.589844 3.289062 69.445312 C 3.289062 69.300781 3.34375 69.160156 3.449219 69.058594 C 3.550781 68.957031 3.6875 68.898438 3.835938 68.898438 L 52.496094 68.898438 C 52.640625 68.898438 52.78125 68.957031 52.882812 69.058594 C 52.984375 69.160156 53.042969 69.300781 53.042969 69.445312 C 53.042969 69.589844 52.984375 69.730469 52.882812 69.832031 C 52.78125 69.933594 52.640625 69.992188 52.496094 69.992188 Z M 52.496094 69.992188 "/>
<path style=" stroke:none;fill-rule:nonzero;fill:#fff;fill-opacity:1;" d="M 9.300781 9.847656 C 8.398438 9.847656 7.660156 9.113281 7.660156 8.207031 L 7.660156 1.648438 C 7.660156 0.742188 8.398438 0.0078125 9.300781 0.0078125 C 10.207031 0.0078125 10.941406 0.742188 10.941406 1.648438 L 10.941406 8.207031 C 10.941406 9.113281 10.207031 9.847656 9.300781 9.847656 Z M 9.300781 1.101562 C 9 1.101562 8.753906 1.347656 8.753906 1.648438 L 8.753906 8.207031 C 8.753906 8.511719 9 8.753906 9.300781 8.753906 C 9.605469 8.753906 9.847656 8.511719 9.847656 8.207031 L 9.847656 1.648438 C 9.847656 1.34375 9.605469 1.101562 9.300781 1.101562 Z M 16.957031 9.847656 C 16.050781 9.847656 15.316406 9.113281 15.316406 8.207031 L 15.316406 1.648438 C 15.316406 0.742188 16.050781 0.0078125 16.957031 0.0078125 C 17.859375 0.0078125 18.597656 0.742188 18.597656 1.648438 L 18.597656 8.207031 C 18.597656 9.113281 17.859375 9.847656 16.957031 9.847656 Z M 16.957031 1.101562 C 16.65625 1.101562 16.410156 1.347656 16.410156 1.648438 L 16.410156 8.207031 C 16.410156 8.511719 16.65625 8.753906 16.957031 8.753906 C 17.257812 8.753906 17.503906 8.511719 17.503906 8.207031 L 17.503906 1.648438 C 17.503906 1.34375 17.257812 1.101562 16.957031 1.101562 Z M 24.609375 9.847656 C 23.707031 9.847656 22.972656 9.113281 22.972656 8.207031 L 22.972656 1.648438 C 22.972656 0.742188 23.707031 0.0078125 24.609375 0.0078125 C 25.515625 0.0078125 26.25 0.742188 26.25 1.648438 L 26.25 8.207031 C 26.25 9.113281 25.515625 9.847656 24.609375 9.847656 Z M 24.609375 1.101562 C 24.308594 1.101562 24.066406 1.347656 24.066406 1.648438 L 24.066406 8.207031 C 24.066406 8.511719 24.308594 8.753906 24.609375 8.753906 C 24.914062 8.753906 25.15625 8.511719 25.15625 8.207031 L 25.15625 1.648438 C 25.15625 1.34375 24.914062 1.101562 24.609375 1.101562 Z M 32.265625 9.847656 C 31.363281 9.847656 30.625 9.113281 30.625 8.207031 L 30.625 1.648438 C 30.625 0.742188 31.363281 0.0078125 32.265625 0.0078125 C 33.171875 0.0078125 33.90625 0.742188 33.90625 1.648438 L 33.90625 8.207031 C 33.90625 9.113281 33.171875 9.847656 32.265625 9.847656 Z M 32.265625 1.101562 C 31.964844 1.101562 31.71875 1.347656 31.71875 1.648438 L 31.71875 8.207031 C 31.71875 8.511719 31.964844 8.753906 32.265625 8.753906 C 32.566406 8.753906 32.8125 8.511719 32.8125 8.207031 L 32.8125 1.648438 C 32.8125 1.34375 32.566406 1.101562 32.265625 1.101562 Z M 39.921875 9.847656 C 39.015625 9.847656 38.28125 9.113281 38.28125 8.207031 L 38.28125 1.648438 C 38.28125 0.742188 39.015625 0.0078125 39.921875 0.0078125 C 40.824219 0.0078125 41.5625 0.742188 41.5625 1.648438 L 41.5625 8.207031 C 41.5625 9.113281 40.824219 9.847656 39.921875 9.847656 Z M 39.921875 1.101562 C 39.621094 1.101562 39.375 1.347656 39.375 1.648438 L 39.375 8.207031 C 39.375 8.511719 39.621094 8.753906 39.921875 8.753906 C 40.222656 8.753906 40.46875 8.511719 40.46875 8.207031 L 40.46875 1.648438 C 40.46875 1.34375 40.222656 1.101562 39.921875 1.101562 Z M 47.574219 9.847656 C 46.671875 9.847656 45.933594 9.113281 45.933594 8.207031 L 45.933594 1.648438 C 45.933594 0.742188 46.671875 0.0078125 47.574219 0.0078125 C 48.480469 0.0078125 49.214844 0.742188 49.214844 1.648438 L 49.214844 8.207031 C 49.214844 9.113281 48.480469 9.847656 47.574219 9.847656 Z M 47.574219 1.101562 C 47.273438 1.101562 47.027344 1.347656 47.027344 1.648438 L 47.027344 8.207031 C 47.027344 8.511719 47.273438 8.753906 47.574219 8.753906 C 47.878906 8.753906 48.121094 8.511719 48.121094 8.207031 L 48.121094 1.648438 C 48.121094 1.34375 47.878906 1.101562 47.574219 1.101562 Z M 62.886719 62.339844 C 62.703125 62.339844 62.53125 62.246094 62.429688 62.09375 L 60.242188 58.8125 C 60.148438 58.671875 60.125 58.496094 60.179688 58.335938 L 61.246094 55.140625 L 61.246094 54.136719 C 61.246094 53.992188 61.300781 53.851562 61.40625 53.75 C 61.507812 53.648438 61.644531 53.589844 61.792969 53.589844 C 61.9375 53.589844 62.074219 53.648438 62.179688 53.75 C 62.28125 53.851562 62.339844 53.992188 62.335938 54.136719 L 62.335938 55.230469 C 62.335938 55.289062 62.328125 55.347656 62.308594 55.402344 L 61.300781 58.429688 L 63.339844 61.488281 C 63.421875 61.609375 63.449219 61.757812 63.421875 61.898438 C 63.394531 62.039062 63.308594 62.167969 63.1875 62.246094 C 63.097656 62.304688 62.992188 62.339844 62.886719 62.339844 Z M 62.886719 62.339844 "/>
<path style=" stroke:none;fill-rule:nonzero;fill:#fff;fill-opacity:1;" d="M 62.882812 62.339844 C 62.683594 62.339844 62.496094 62.226562 62.402344 62.050781 C 62.308594 61.871094 62.316406 61.65625 62.429688 61.488281 L 64.46875 58.429688 L 63.460938 55.402344 C 63.441406 55.347656 63.429688 55.289062 63.429688 55.230469 L 63.429688 54.136719 C 63.429688 53.992188 63.488281 53.851562 63.589844 53.75 C 63.695312 53.648438 63.832031 53.589844 63.976562 53.589844 C 64.125 53.589844 64.261719 53.648438 64.363281 53.75 C 64.46875 53.851562 64.523438 53.992188 64.523438 54.136719 L 64.523438 55.140625 L 65.589844 58.335938 C 65.644531 58.496094 65.621094 58.671875 65.527344 58.8125 L 63.339844 62.09375 C 63.238281 62.246094 63.066406 62.339844 62.882812 62.339844 Z M 65.070312 45.933594 L 60.699219 45.933594 C 60.550781 45.933594 60.414062 45.878906 60.3125 45.773438 C 60.207031 45.671875 60.152344 45.535156 60.152344 45.386719 C 60.152344 45.085938 60.394531 44.839844 60.699219 44.839844 L 65.070312 44.839844 C 65.375 44.839844 65.617188 45.085938 65.617188 45.386719 C 65.617188 45.535156 65.5625 45.671875 65.457031 45.773438 C 65.355469 45.878906 65.214844 45.933594 65.070312 45.933594 Z M 65.070312 45.933594 "/>
<path style=" stroke:none;fill-rule:nonzero;fill:#fff;fill-opacity:1;" d="M 60.699219 45.933594 C 60.402344 45.933594 60.164062 45.703125 60.152344 45.410156 L 59.058594 18.070312 C 59.050781 17.925781 59.105469 17.785156 59.203125 17.679688 C 59.300781 17.570312 59.4375 17.507812 59.582031 17.503906 C 59.882812 17.464844 60.136719 17.726562 60.152344 18.027344 L 61.246094 45.367188 C 61.253906 45.667969 61.019531 45.921875 60.71875 45.933594 Z M 65.074219 45.933594 L 65.050781 45.933594 C 64.75 45.921875 64.511719 45.667969 64.527344 45.367188 L 65.621094 18.027344 C 65.632812 17.726562 65.882812 17.464844 66.1875 17.503906 C 66.488281 17.515625 66.722656 17.769531 66.710938 18.070312 L 65.617188 45.410156 C 65.605469 45.703125 65.367188 45.933594 65.074219 45.933594 Z M 65.074219 45.933594 "/>
<path style=" stroke:none;fill-rule:nonzero;fill:#fff;fill-opacity:1;" d="M 66.164062 18.597656 C 66.019531 18.597656 65.882812 18.539062 65.777344 18.4375 C 65.675781 18.332031 65.617188 18.195312 65.617188 18.050781 C 65.617188 15.511719 64.699219 14.222656 62.882812 14.222656 C 61.070312 14.222656 60.152344 15.511719 60.152344 18.050781 C 60.152344 18.351562 59.90625 18.597656 59.605469 18.597656 C 59.300781 18.597656 59.058594 18.351562 59.058594 18.050781 C 59.058594 14.921875 60.453125 13.128906 62.882812 13.128906 C 65.316406 13.128906 66.710938 14.921875 66.710938 18.050781 C 66.710938 18.195312 66.65625 18.332031 66.550781 18.4375 C 66.449219 18.539062 66.308594 18.597656 66.164062 18.597656 Z M 66.164062 18.597656 "/>
<path style=" stroke:none;fill-rule:nonzero;fill:#fff;fill-opacity:1;" d="M 63.976562 14.222656 L 61.792969 14.222656 C 61.488281 14.222656 61.246094 13.976562 61.246094 13.675781 C 61.246094 13.371094 61.488281 13.128906 61.792969 13.128906 L 63.976562 13.128906 C 64.28125 13.128906 64.523438 13.371094 64.523438 13.675781 C 64.523438 13.976562 64.28125 14.222656 63.976562 14.222656 Z M 62.882812 32.8125 C 62.738281 32.8125 62.601562 32.753906 62.496094 32.652344 C 62.394531 32.550781 62.335938 32.410156 62.335938 32.265625 L 62.335938 15.863281 C 62.335938 15.558594 62.582031 15.316406 62.882812 15.316406 C 63.1875 15.316406 63.429688 15.558594 63.429688 15.863281 L 63.429688 32.265625 C 63.429688 32.410156 63.375 32.550781 63.269531 32.652344 C 63.167969 32.753906 63.03125 32.8125 62.882812 32.8125 Z M 65.070312 48.121094 L 60.699219 48.121094 C 60.550781 48.121094 60.414062 48.066406 60.3125 47.960938 C 60.207031 47.859375 60.152344 47.71875 60.152344 47.574219 C 60.152344 47.429688 60.207031 47.292969 60.3125 47.1875 C 60.414062 47.085938 60.550781 47.027344 60.699219 47.027344 L 65.070312 47.027344 C 65.375 47.027344 65.617188 47.273438 65.617188 47.574219 C 65.617188 47.878906 65.375 48.121094 65.070312 48.121094 Z M 65.070312 48.121094 "/>
<path style=" stroke:none;fill-rule:nonzero;fill:#fff;fill-opacity:1;" d="M 65.070312 48.121094 C 64.925781 48.121094 64.789062 48.066406 64.683594 47.960938 C 64.582031 47.859375 64.523438 47.71875 64.523438 47.574219 L 64.523438 45.386719 C 64.523438 45.085938 64.769531 44.839844 65.070312 44.839844 C 65.375 44.839844 65.617188 45.085938 65.617188 45.386719 L 65.617188 47.574219 C 65.617188 47.878906 65.375 48.121094 65.070312 48.121094 Z M 60.699219 48.121094 C 60.550781 48.121094 60.414062 48.066406 60.3125 47.960938 C 60.207031 47.859375 60.152344 47.71875 60.152344 47.574219 L 60.152344 45.386719 C 60.152344 45.085938 60.394531 44.839844 60.699219 44.839844 C 60.84375 44.839844 60.980469 44.898438 61.085938 45 C 61.1875 45.105469 61.246094 45.242188 61.246094 45.386719 L 61.246094 47.574219 C 61.246094 47.878906 61 48.121094 60.699219 48.121094 Z M 65.070312 54.683594 L 60.699219 54.683594 C 60.550781 54.683594 60.414062 54.625 60.3125 54.523438 C 60.207031 54.421875 60.152344 54.28125 60.152344 54.136719 C 60.152344 53.992188 60.207031 53.851562 60.3125 53.75 C 60.414062 53.648438 60.550781 53.589844 60.699219 53.589844 L 65.070312 53.589844 C 65.375 53.589844 65.617188 53.835938 65.617188 54.136719 C 65.617188 54.28125 65.5625 54.421875 65.457031 54.523438 C 65.355469 54.625 65.214844 54.683594 65.070312 54.683594 Z M 65.070312 54.683594 "/>
<path style=" stroke:none;fill-rule:nonzero;fill:#fff;fill-opacity:1;" d="M 65.070312 54.683594 C 64.925781 54.683594 64.789062 54.625 64.683594 54.523438 C 64.582031 54.421875 64.523438 54.28125 64.523438 54.136719 L 64.523438 47.574219 C 64.523438 47.429688 64.582031 47.292969 64.683594 47.1875 C 64.789062 47.085938 64.925781 47.027344 65.070312 47.027344 C 65.375 47.027344 65.617188 47.273438 65.617188 47.574219 L 65.617188 54.136719 C 65.617188 54.28125 65.5625 54.421875 65.457031 54.523438 C 65.355469 54.625 65.214844 54.683594 65.070312 54.683594 Z M 60.699219 54.683594 C 60.550781 54.683594 60.414062 54.625 60.3125 54.523438 C 60.207031 54.421875 60.152344 54.28125 60.152344 54.136719 L 60.152344 47.574219 C 60.152344 47.429688 60.207031 47.292969 60.3125 47.1875 C 60.414062 47.085938 60.550781 47.027344 60.699219 47.027344 C 60.84375 47.027344 60.980469 47.085938 61.085938 47.1875 C 61.1875 47.292969 61.246094 47.429688 61.246094 47.574219 L 61.246094 54.136719 C 61.246094 54.28125 61.1875 54.421875 61.085938 54.523438 C 60.980469 54.625 60.84375 54.683594 60.699219 54.683594 Z M 13.675781 25.160156 C 13.53125 25.160156 13.390625 25.101562 13.289062 25 L 11.101562 22.8125 C 10.890625 22.597656 10.890625 22.25 11.101562 22.039062 C 11.316406 21.824219 11.660156 21.824219 11.875 22.039062 L 14.0625 24.226562 C 14.21875 24.382812 14.265625 24.617188 14.179688 24.820312 C 14.097656 25.023438 13.898438 25.160156 13.675781 25.160156 Z M 13.675781 25.160156 "/>
<path style=" stroke:none;fill-rule:nonzero;fill:#fff;fill-opacity:1;" d="M 13.675781 25.160156 C 13.453125 25.160156 13.253906 25.023438 13.171875 24.820312 C 13.085938 24.617188 13.132812 24.382812 13.289062 24.226562 L 17.664062 19.851562 C 17.878906 19.636719 18.222656 19.636719 18.4375 19.851562 C 18.648438 20.0625 18.648438 20.410156 18.4375 20.625 L 14.0625 25 C 13.960938 25.101562 13.820312 25.160156 13.675781 25.160156 Z M 13.675781 25.160156 "/>
<path style=" stroke:none;fill-rule:nonzero;fill:#fff;fill-opacity:1;" d="M 13.675781 39.375 C 13.53125 39.375 13.390625 39.316406 13.289062 39.214844 L 11.101562 37.027344 C 10.890625 36.8125 10.890625 36.46875 11.101562 36.253906 C 11.316406 36.039062 11.660156 36.039062 11.875 36.253906 L 14.0625 38.441406 C 14.21875 38.597656 14.265625 38.832031 14.179688 39.035156 C 14.097656 39.242188 13.898438 39.375 13.675781 39.375 Z M 13.675781 39.375 "/>
<path style=" stroke:none;fill-rule:nonzero;fill:#fff;fill-opacity:1;" d="M 13.675781 39.375 C 13.453125 39.375 13.253906 39.242188 13.171875 39.035156 C 13.085938 38.832031 13.132812 38.597656 13.289062 38.441406 L 17.664062 34.066406 C 17.878906 33.855469 18.222656 33.855469 18.4375 34.066406 C 18.648438 34.28125 18.648438 34.628906 18.4375 34.839844 L 14.0625 39.214844 C 13.960938 39.316406 13.820312 39.375 13.675781 39.375 Z M 13.675781 39.375 "/>
<path style=" stroke:none;fill-rule:nonzero;fill:#fff;fill-opacity:1;" d="M 45.386719 19.691406 L 23.519531 19.691406 C 23.214844 19.691406 22.972656 19.445312 22.972656 19.144531 C 22.972656 18.839844 23.214844 18.597656 23.519531 18.597656 L 45.386719 18.597656 C 45.691406 18.597656 45.933594 18.839844 45.933594 19.144531 C 45.933594 19.445312 45.691406 19.691406 45.386719 19.691406 Z M 45.386719 19.691406 "/>
<path style=" stroke:none;fill-rule:nonzero;fill:#fff;fill-opacity:1;" d="M 45.386719 22.972656 L 23.519531 22.972656 C 23.214844 22.972656 22.972656 22.726562 22.972656 22.425781 C 22.972656 22.121094 23.214844 21.878906 23.519531 21.878906 L 45.386719 21.878906 C 45.691406 21.878906 45.933594 22.121094 45.933594 22.425781 C 45.933594 22.726562 45.691406 22.972656 45.386719 22.972656 Z M 45.386719 22.972656 "/>
<path style=" stroke:none;fill-rule:nonzero;fill:#fff;fill-opacity:1;" d="M 34.453125 26.25 L 23.519531 26.25 C 23.371094 26.25 23.234375 26.195312 23.132812 26.089844 C 23.027344 25.988281 22.972656 25.851562 22.972656 25.703125 C 22.972656 25.558594 23.027344 25.421875 23.132812 25.316406 C 23.234375 25.214844 23.371094 25.15625 23.519531 25.15625 L 34.453125 25.15625 C 34.597656 25.15625 34.738281 25.214844 34.839844 25.316406 C 34.941406 25.421875 35 25.558594 35 25.703125 C 35 26.007812 34.753906 26.25 34.453125 26.25 Z M 34.453125 26.25 "/>
<path style=" stroke:none;fill-rule:nonzero;fill:#fff;fill-opacity:1;" d="M 45.386719 33.90625 L 23.519531 33.90625 C 23.214844 33.90625 22.972656 33.660156 22.972656 33.359375 C 22.972656 33.058594 23.214844 32.8125 23.519531 32.8125 L 45.386719 32.8125 C 45.691406 32.8125 45.933594 33.058594 45.933594 33.359375 C 45.933594 33.660156 45.691406 33.90625 45.386719 33.90625 Z M 45.386719 33.90625 "/>
<path style=" stroke:none;fill-rule:nonzero;fill:#fff;fill-opacity:1;" d="M 45.386719 37.1875 L 23.519531 37.1875 C 23.371094 37.1875 23.234375 37.128906 23.132812 37.027344 C 23.027344 36.925781 22.972656 36.785156 22.972656 36.640625 C 22.972656 36.496094 23.027344 36.355469 23.132812 36.253906 C 23.234375 36.152344 23.371094 36.09375 23.519531 36.09375 L 45.386719 36.09375 C 45.535156 36.09375 45.671875 36.152344 45.773438 36.253906 C 45.878906 36.355469 45.933594 36.496094 45.933594 36.640625 C 45.933594 36.941406 45.691406 37.1875 45.386719 37.1875 Z M 45.386719 37.1875 "/>
<path style=" stroke:none;fill-rule:nonzero;fill:#fff;fill-opacity:1;" d="M 34.453125 40.46875 L 23.519531 40.46875 C 23.371094 40.46875 23.234375 40.410156 23.132812 40.308594 C 23.027344 40.203125 22.972656 40.066406 22.972656 39.921875 C 22.972656 39.777344 23.027344 39.636719 23.132812 39.535156 C 23.234375 39.429688 23.371094 39.375 23.519531 39.375 L 34.453125 39.375 C 34.597656 39.375 34.738281 39.429688 34.839844 39.535156 C 34.941406 39.636719 35 39.777344 35 39.921875 C 35 40.222656 34.753906 40.46875 34.453125 40.46875 Z M 34.453125 40.46875 "/>
<path style=" stroke:none;fill-rule:nonzero;fill:#fff;fill-opacity:1;" d="M 13.675781 53.589844 C 13.53125 53.589844 13.390625 53.53125 13.289062 53.429688 L 11.101562 51.242188 C 10.890625 51.027344 10.890625 50.683594 11.101562 50.46875 C 11.316406 50.257812 11.660156 50.257812 11.875 50.46875 L 14.0625 52.65625 C 14.21875 52.8125 14.265625 53.046875 14.179688 53.253906 C 14.097656 53.457031 13.898438 53.589844 13.675781 53.589844 Z M 13.675781 53.589844 "/>
<path style=" stroke:none;fill-rule:nonzero;fill:#fff;fill-opacity:1;" d="M 13.675781 53.589844 C 13.453125 53.589844 13.253906 53.457031 13.171875 53.253906 C 13.085938 53.046875 13.132812 52.8125 13.289062 52.65625 L 17.664062 48.28125 C 17.878906 48.070312 18.222656 48.070312 18.4375 48.28125 C 18.648438 48.496094 18.648438 48.84375 18.4375 49.054688 L 14.0625 53.429688 C 13.960938 53.53125 13.820312 53.589844 13.675781 53.589844 Z M 13.675781 53.589844 "/>
<path style=" stroke:none;fill-rule:nonzero;fill:#fff;fill-opacity:1;" d="M 45.386719 48.121094 L 23.519531 48.121094 C 23.371094 48.121094 23.234375 48.066406 23.132812 47.960938 C 23.027344 47.859375 22.972656 47.71875 22.972656 47.574219 C 22.972656 47.429688 23.027344 47.292969 23.132812 47.1875 C 23.234375 47.085938 23.371094 47.027344 23.519531 47.027344 L 45.386719 47.027344 C 45.535156 47.027344 45.671875 47.085938 45.773438 47.1875 C 45.878906 47.292969 45.933594 47.429688 45.933594 47.574219 C 45.933594 47.878906 45.691406 48.121094 45.386719 48.121094 Z M 45.386719 48.121094 "/>
<path style=" stroke:none;fill-rule:nonzero;fill:#fff;fill-opacity:1;" d="M 45.386719 51.402344 L 23.519531 51.402344 C 23.371094 51.402344 23.234375 51.34375 23.132812 51.242188 C 23.027344 51.140625 22.972656 51 22.972656 50.855469 C 22.972656 50.710938 23.027344 50.570312 23.132812 50.46875 C 23.234375 50.367188 23.371094 50.308594 23.519531 50.308594 L 45.386719 50.308594 C 45.535156 50.308594 45.671875 50.367188 45.773438 50.46875 C 45.878906 50.570312 45.933594 50.710938 45.933594 50.855469 C 45.933594 51.15625 45.691406 51.402344 45.386719 51.402344 Z M 45.386719 51.402344 "/>
<path style=" stroke:none;fill-rule:nonzero;fill:#fff;fill-opacity:1;" d="M 34.453125 54.683594 L 23.519531 54.683594 C 23.371094 54.683594 23.234375 54.625 23.132812 54.523438 C 23.027344 54.421875 22.972656 54.28125 22.972656 54.136719 C 22.972656 53.992188 23.027344 53.851562 23.132812 53.75 C 23.234375 53.648438 23.371094 53.589844 23.519531 53.589844 L 34.453125 53.589844 C 34.597656 53.589844 34.738281 53.648438 34.839844 53.75 C 34.941406 53.851562 35 53.992188 35 54.136719 C 35 54.28125 34.941406 54.421875 34.839844 54.523438 C 34.738281 54.625 34.597656 54.683594 34.453125 54.683594 Z M 34.453125 54.683594 "/>
</g>
</svg>
