<svg version="1.0" xmlns="http://www.w3.org/2000/svg"
 width="1280.000000pt" height="1244.000000pt" viewBox="0 0 1280.000000 1244.000000"
 preserveAspectRatio="xMidYMid meet">
<g transform="translate(0.000000,1244.000000) scale(0.100000,-0.100000)"
fill="#000000" stroke="none">
<path d="M6325 12421 c-46 -21 -79 -54 -94 -94 -8 -19 -11 -268 -11 -767 l0
-739 -57 -11 c-32 -7 -100 -27 -150 -45 -349 -124 -615 -420 -703 -783 l-23
-92 -1441 -2 c-1433 -3 -1441 -3 -1476 -24 -126 -73 -111 -252 25 -315 38 -18
101 -19 1467 -19 l1426 0 16 -70 c48 -209 157 -400 314 -552 168 -161 334
-249 575 -302 l27 -6 0 -355 0 -355 -130 -1 c-71 -1 -136 -2 -142 -3 -10 -1
-14 -604 -16 -2973 l-2 -2973 490 0 490 0 -2 2973 c-2 2369 -6 2972 -15 2973
-7 1 -80 2 -163 3 l-150 1 0 355 0 355 28 6 c172 38 346 114 463 203 83 63
203 189 259 271 63 93 127 234 157 349 l26 101 1426 0 c933 0 1439 4 1463 10
46 13 103 76 118 129 21 79 -21 169 -94 202 -39 18 -98 19 -1477 19 l-1436 0
-20 83 c-105 420 -410 725 -830 830 l-83 20 0 738 c0 498 -3 747 -11 766 -23
61 -100 113 -169 113 -19 0 -53 -9 -75 -19z m-105 -2221 l0 -310 -310 0 -310
0 6 28 c13 49 62 162 96 219 68 113 207 242 328 303 41 21 165 68 183 69 4 1
7 -138 7 -309z m431 289 c230 -76 417 -251 508 -476 15 -37 31 -80 35 -95 l6
-28 -310 0 -310 0 0 310 c0 171 2 310 3 310 2 0 32 -9 68 -21z m-431 -1268 l0
-310 -52 15 c-82 24 -187 78 -259 132 -147 112 -243 254 -303 450 l-7 22 310
0 311 0 0 -309z m980 306 c0 -2 -11 -37 -25 -77 -85 -250 -291 -449 -543 -524
l-52 -15 0 310 0 309 310 0 c171 0 310 -1 310 -3z m-729 -1726 l29 -29 0
-1612 0 -1612 -29 -29 c-23 -23 -38 -29 -71 -29 -33 0 -48 6 -71 29 l-29 29 0
1612 0 1612 29 29 c23 23 38 29 71 29 33 0 48 -6 71 -29z"/>
<path d="M2517 9059 c-14 -30 -151 -326 -304 -659 -154 -333 -516 -1113 -803
-1735 -288 -621 -624 -1348 -747 -1615 -124 -267 -227 -493 -230 -503 -5 -16
7 -17 196 -15 l202 3 648 1385 c356 762 741 1583 854 1825 113 242 209 439
213 438 3 -1 48 -91 99 -200 1311 -2817 1604 -3445 1608 -3450 2 -2 94 -2 203
-1 l200 3 -332 720 c-182 396 -541 1177 -799 1735 -257 558 -580 1260 -717
1560 -138 300 -254 549 -259 554 -4 5 -19 -15 -32 -45z"/>
<path d="M10227 9059 c-24 -54 -162 -353 -957 -2079 -227 -492 -570 -1237
-762 -1655 -192 -418 -354 -768 -359 -777 -9 -17 3 -18 194 -18 l204 0 181
388 c99 213 426 916 727 1562 301 646 602 1293 670 1438 67 145 126 264 129
265 4 1 99 -194 211 -433 112 -239 496 -1060 854 -1825 l650 -1390 202 -3
c189 -2 201 -1 196 15 -2 10 -190 419 -417 908 -438 947 -1535 3319 -1628
3520 -30 66 -58 124 -63 129 -4 5 -19 -15 -32 -45z"/>
<path d="M169 4331 c-54 -11 -100 -42 -134 -90 -26 -37 -30 -51 -30 -109 0
-80 25 -129 88 -170 l41 -27 2412 0 2412 0 43 30 c58 41 84 94 84 172 0 52 -5
68 -31 105 -16 24 -50 54 -74 68 l-45 25 -2365 1 c-1301 1 -2381 -1 -2401 -5z"/>
<path d="M7879 4331 c-54 -11 -100 -42 -134 -90 -25 -36 -30 -52 -30 -104 0
-78 26 -131 84 -172 l43 -30 2411 0 2412 0 38 24 c21 13 50 42 65 64 23 34 27
52 27 108 0 59 -4 73 -30 111 -17 23 -51 54 -75 68 l-45 25 -2365 1 c-1301 1
-2381 -1 -2401 -5z"/>
<path d="M490 3776 c0 -26 96 -269 145 -366 454 -907 1452 -1367 2429 -1119
616 156 1144 599 1405 1177 38 85 111 284 111 303 0 5 -834 9 -2045 9 -1125 0
-2045 -2 -2045 -4z"/>
<path d="M8220 3771 c0 -17 70 -210 106 -293 20 -46 61 -126 91 -178 454 -798
1366 -1215 2261 -1035 653 132 1199 556 1493 1160 53 110 139 326 139 351 0 2
-920 4 -2045 4 -1211 0 -2045 -4 -2045 -9z"/>
<path d="M5559 1756 c-63 -17 -105 -49 -139 -109 -25 -43 -30 -63 -30 -117 1
-103 43 -175 135 -224 l40 -21 825 0 c891 0 854 -2 927 53 18 13 45 49 59 79
51 104 28 225 -54 293 -74 61 -59 60 -926 59 -593 0 -802 -3 -837 -13z"/>
<path d="M4585 1106 c-60 -28 -87 -56 -114 -116 -53 -118 -4 -252 114 -306
l50 -24 1755 0 c1207 0 1767 3 1793 11 49 13 115 73 138 124 23 50 24 142 3
193 -20 49 -70 100 -119 123 -38 18 -107 19 -1805 19 l-1765 0 -50 -24z"/>
<path d="M3421 444 c-124 -62 -168 -213 -95 -331 18 -29 49 -59 78 -78 l49
-30 2929 -3 2929 -2 50 21 c57 25 114 86 129 138 14 51 12 126 -4 165 -20 48
-75 107 -121 127 -38 18 -157 19 -2966 19 l-2925 0 -53 -26z"/>
</g>
</svg>
